<svg viewBox="0 0 319 75" fill="none" xmlns="http://www.w3.org/2000/svg">
    <path
        fill-rule="evenodd"
        clip-rule="evenodd"
        d="M23.6 23.88C27.03 20.45 31.78 18.32 37.02 18.32C43.82 18.32 49.76 21.91 53.11 27.28L73.56 33.57C71.69 15.04 56.05 0.580017 37.02 0.580017C17.4 0.580017 1.38001 15.96 0.350006 35.32L50.44 50.72C47.01 54.15 42.26 56.28 37.02 56.28C30.22 56.28 24.28 52.69 20.93 47.32L0.479996 41.03C2.35 59.56 17.99 74.02 37.02 74.02C56.64 74.02 72.66 58.64 73.69 39.28L23.6 23.88Z"
        fill="#007828"
    ></path>
    <path
        d="M100.31 54.96C98.03 54.28 96.2 53.42 94.84 52.39L97.49 46.7C98.82 47.66 100.41 48.43 102.27 49.01C104.13 49.59 105.96 49.88 107.77 49.88C111.89 49.88 113.96 48.7 113.96 46.35C113.96 45.23 113.44 44.46 112.39 44.02C111.34 43.58 109.66 43.16 107.33 42.76C104.9 42.36 102.92 41.9 101.39 41.38C99.86 40.86 98.54 39.95 97.41 38.66C96.29 37.36 95.72 35.56 95.72 33.24C95.72 30.21 96.89 27.78 99.23 25.96C101.57 24.15 104.73 23.24 108.71 23.24C110.73 23.24 112.76 23.49 114.79 23.99C116.82 24.49 118.47 25.16 119.76 26L117.11 31.69C114.61 30.09 111.79 29.3 108.66 29.3C106.63 29.3 105.1 29.63 104.05 30.29C103 30.95 102.48 31.82 102.48 32.89C102.48 34.09 103.04 34.94 104.17 35.43C105.29 35.93 107.03 36.4 109.39 36.84C111.75 37.24 113.68 37.7 115.19 38.22C116.7 38.74 118 39.62 119.09 40.85C120.18 42.09 120.72 43.84 120.72 46.12C120.72 49.11 119.52 51.51 117.13 53.31C114.74 55.1 111.48 56 107.35 56C104.93 55.97 102.59 55.63 100.31 54.96Z"
        fill="#010101"
    ></path>
    <path
        d="M126.99 17.02C126.14 16.16 125.72 15.09 125.72 13.82C125.72 12.55 126.14 11.48 126.99 10.62C127.84 9.76 128.89 9.33002 130.14 9.33002C131.39 9.33002 132.44 9.74 133.29 10.56C134.14 11.38 134.56 12.41 134.56 13.64C134.56 14.96 134.15 16.07 133.32 16.96C132.49 17.86 131.43 18.31 130.14 18.31C128.89 18.31 127.84 17.88 126.99 17.02ZM126.66 23.58H133.57V55.56H126.66V23.58Z"
        fill="#010101"
    ></path>
    <path
        d="M166.69 25.26C168.96 26.62 170.73 28.53 172.02 31.01C173.31 33.48 173.95 36.34 173.95 39.57C173.95 42.8 173.3 45.67 172.02 48.16C170.73 50.66 168.95 52.58 166.69 53.94C164.42 55.3 161.86 55.98 158.98 55.98C156.95 55.98 155.1 55.6 153.43 54.84C151.75 54.08 150.34 52.94 149.2 51.43V55.56H142.63V11.13H149.54V27.48C150.72 26.08 152.11 25.02 153.71 24.31C155.31 23.59 157.07 23.23 158.99 23.23C161.86 23.22 164.42 23.9 166.69 25.26ZM164.48 46.81C166.12 44.97 166.94 42.56 166.94 39.56C166.94 36.56 166.12 34.15 164.48 32.31C162.84 30.48 160.75 29.56 158.21 29.56C156.55 29.56 155.06 29.97 153.73 30.79C152.4 31.61 151.35 32.78 150.58 34.29C149.81 35.81 149.42 37.56 149.42 39.56C149.42 41.56 149.81 43.31 150.58 44.83C151.35 46.35 152.4 47.52 153.73 48.33C155.06 49.15 156.55 49.56 158.21 49.56C160.75 49.57 162.84 48.65 164.48 46.81Z"
        fill="#010101"
    ></path>
    <path
        d="M208.15 41.96H185C185.4 44.32 186.46 46.18 188.18 47.56C189.89 48.94 192.02 49.63 194.56 49.63C197.8 49.63 200.47 48.47 202.57 46.16L206.27 50.77C204.94 52.49 203.27 53.79 201.24 54.66C199.21 55.54 196.93 55.98 194.39 55.98C191.15 55.98 188.29 55.28 185.83 53.88C183.36 52.48 181.46 50.54 180.11 48.04C178.76 45.55 178.09 42.72 178.09 39.57C178.09 36.46 178.74 33.65 180.05 31.16C181.36 28.67 183.17 26.72 185.49 25.32C187.81 23.92 190.43 23.22 193.34 23.22C196.21 23.22 198.78 23.91 201.05 25.29C203.32 26.67 205.08 28.6 206.35 31.1C207.62 33.6 208.26 36.48 208.26 39.75C208.26 40.27 208.23 41.01 208.15 41.96ZM187.74 31.34C186.21 32.76 185.28 34.64 184.95 37H201.69C201.4 34.69 200.49 32.81 198.98 31.37C197.47 29.93 195.59 29.21 193.34 29.21C191.14 29.21 189.27 29.92 187.74 31.34Z"
        fill="#010101"
    ></path>
    <path
        d="M243.79 11.13V55.56H237.16V51.43C236.02 52.95 234.61 54.09 232.93 54.84C231.25 55.6 229.4 55.98 227.38 55.98C224.54 55.98 221.99 55.3 219.73 53.94C217.47 52.58 215.69 50.66 214.4 48.16C213.11 45.67 212.47 42.8 212.47 39.57C212.47 36.34 213.11 33.48 214.4 31.01C215.69 28.54 217.47 26.62 219.73 25.26C221.99 23.9 224.54 23.22 227.38 23.22C229.33 23.22 231.12 23.58 232.74 24.3C234.36 25.02 235.74 26.1 236.88 27.53V11.12H243.79V11.13ZM232.68 48.34C234.01 47.52 235.06 46.36 235.83 44.84C236.6 43.32 236.99 41.57 236.99 39.57C236.99 37.57 236.6 35.82 235.83 34.3C235.06 32.78 234.01 31.62 232.68 30.8C231.35 29.98 229.86 29.57 228.2 29.57C226.54 29.57 225.05 29.98 223.72 30.8C222.39 31.62 221.34 32.79 220.57 34.3C219.8 35.82 219.41 37.57 219.41 39.57C219.41 41.57 219.8 43.32 220.57 44.84C221.34 46.36 222.39 47.53 223.72 48.34C225.05 49.16 226.54 49.57 228.2 49.57C229.87 49.57 231.36 49.16 232.68 48.34Z"
        fill="#010101"
    ></path>
    <path
        d="M282.13 23.58V50.71C282.13 61.97 276.83 67.6 266.22 67.6C263.38 67.6 260.7 67.21 258.15 66.43C255.61 65.65 253.51 64.52 251.85 63.05L254.94 57.42C256.23 58.58 257.86 59.51 259.83 60.21C261.8 60.91 263.8 61.26 265.82 61.26C269.06 61.26 271.44 60.46 272.95 58.87C274.46 57.27 275.22 54.84 275.22 51.57V49.89C274.04 51.29 272.6 52.35 270.91 53.06C269.22 53.78 267.35 54.14 265.33 54.14C262.53 54.14 260 53.49 257.73 52.19C255.46 50.89 253.68 49.07 252.37 46.71C251.06 44.36 250.41 41.66 250.41 38.63C250.41 35.6 251.06 32.91 252.37 30.58C253.68 28.24 255.46 26.44 257.73 25.16C260 23.88 262.53 23.24 265.33 23.24C267.47 23.24 269.41 23.62 271.16 24.38C272.91 25.14 274.37 26.3 275.55 27.85V23.6H282.13V23.58ZM272.82 45.23C274.5 43.53 275.33 41.33 275.33 38.61C275.33 35.93 274.49 33.76 272.82 32.08C271.14 30.4 269 29.56 266.38 29.56C263.73 29.56 261.56 30.4 259.89 32.08C258.21 33.76 257.38 35.93 257.38 38.61C257.38 41.32 258.22 43.53 259.89 45.23C261.57 46.93 263.73 47.77 266.38 47.77C269 47.77 271.14 46.92 272.82 45.23Z"
        fill="#010101"
    ></path>
    <path
        d="M318.81 41.96H295.66C296.06 44.32 297.12 46.18 298.84 47.56C300.55 48.94 302.68 49.63 305.22 49.63C308.46 49.63 311.13 48.47 313.23 46.16L316.93 50.77C315.6 52.49 313.93 53.79 311.9 54.66C309.87 55.54 307.59 55.98 305.05 55.98C301.81 55.98 298.95 55.28 296.49 53.88C294.02 52.48 292.12 50.54 290.77 48.04C289.42 45.55 288.75 42.72 288.75 39.57C288.75 36.46 289.4 33.65 290.71 31.16C292.02 28.67 293.83 26.72 296.15 25.32C298.47 23.92 301.09 23.22 304 23.22C306.87 23.22 309.44 23.91 311.71 25.29C313.98 26.67 315.74 28.6 317.01 31.1C318.28 33.6 318.92 36.48 318.92 39.75C318.93 40.27 318.89 41.01 318.81 41.96ZM298.4 31.34C296.87 32.76 295.94 34.64 295.61 37H312.35C312.06 34.69 311.15 32.81 309.64 31.37C308.13 29.93 306.25 29.21 304 29.21C301.8 29.21 299.93 29.92 298.4 31.34Z"
        fill="#010101"
    ></path>
</svg>
